####
#
# OBJ File Generated by Meshlab
#
####
# Object plate3.obj
#
# Vertices: 8
# Faces: 12
#
####
vn -1.000000 -1.592644 1.569557
v -4.019787 1.282399 5.880459
vn 2.000000 -2.215848 0.300067
v 7.855511 1.282399 5.880459
vn -2.000000 1.569555 1.592630
v -4.019787 1.393596 5.918429
vn 1.000000 0.300058 2.215838
v 7.855511 1.393596 5.918429
vn -1.000000 1.592636 -1.569560
v -4.019787 1.814807 4.684869
vn 2.000000 2.215845 -0.300069
v 7.855511 1.814807 4.684869
vn -2.000000 -1.569559 -1.592632
v -4.019787 1.703610 4.646899
vn 1.000000 -0.300066 -2.215841
v 7.855511 1.703610 4.646899
# 8 vertices, 0 vertices normals

f 1//1 2//2 4//4
f 1//1 4//4 3//3
f 3//3 4//4 6//6
f 3//3 6//6 5//5
f 5//5 6//6 8//8
f 5//5 8//8 7//7
f 7//7 8//8 2//2
f 7//7 2//2 1//1
f 2//2 8//8 6//6
f 2//2 6//6 4//4
f 7//7 1//1 3//3
f 7//7 3//3 5//5
# 12 faces, 0 coords texture

# End of File
