####
#
# OBJ File Generated by Meshlab
#
####
# Object sphere3.obj
#
# Vertices: 212
# Faces: 420
#
####
vn 0.818799 -2.850968 -0.436300
v 0.053040 6.103330 3.007463
vn 0.570553 -2.850969 -0.731612
v 0.036045 6.103330 2.984072
vn 0.223652 -2.850969 -0.900424
v 0.011006 6.103330 2.969615
vn -0.161921 -2.850971 -0.913541
v -0.017749 6.103330 2.966593
vn -0.519494 -2.850971 -0.768700
v -0.045248 6.103330 2.975528
vn -0.787238 -2.850971 -0.490947
v -0.066734 6.103330 2.994875
vn -0.918865 -2.850971 -0.128304
v -0.078494 6.103330 3.021288
vn -0.891614 -2.850970 0.256523
v -0.078494 6.103330 3.050202
vn -0.710196 -2.850969 0.597000
v -0.066734 6.103330 3.076615
vn -0.405977 -2.850967 0.834252
v -0.045248 6.103330 3.095962
vn -0.031554 -2.850968 0.927250
v -0.017749 6.103330 3.104897
vn 0.348322 -2.850968 0.859919
v 0.011006 6.103330 3.101874
vn 0.667966 -2.850969 0.643901
v 0.036045 6.103330 3.087418
vn 0.872116 -2.850968 0.316550
v 0.053040 6.103330 3.064026
vn 0.925471 -2.850967 -0.065544
v 0.059052 6.103330 3.035745
vn 2.191404 -5.430559 -1.019618
v 0.113785 6.124935 2.980418
vn 1.587231 -5.430559 -1.822788
v 0.080538 6.124935 2.934657
vn 0.708622 -5.430560 -2.310780
v 0.031553 6.124935 2.906376
vn -0.292533 -5.430561 -2.399218
v -0.024700 6.124935 2.900463
vn -1.243094 -5.430561 -2.072811
v -0.078494 6.124935 2.917942
vn -1.978708 -5.430562 -1.387995
v -0.120529 6.124935 2.955790
vn -2.372181 -5.430566 -0.463184
v -0.143535 6.124935 3.007463
vn -2.355491 -5.430567 0.541711
v -0.143535 6.124935 3.064026
vn -1.931514 -5.430566 1.452943
v -0.120529 6.124935 3.115699
vn -1.173563 -5.430563 2.112954
v -0.078494 6.124935 3.153547
vn -0.212693 -5.430560 2.407617
v -0.024700 6.124935 3.171026
vn 0.784965 -5.430562 2.285970
v 0.031553 6.124935 3.165114
vn 1.646889 -5.430562 1.769066
v 0.080538 6.124935 3.136832
vn 2.224050 -5.430562 0.946275
v 0.113785 6.124935 3.091072
vn 2.416657 -5.430561 -0.040140
v 0.125545 6.124935 3.035745
vn 3.163923 -4.790756 -1.447122
v 0.169099 6.159893 2.955791
vn 2.301797 -4.790751 -2.608896
v 0.121053 6.159893 2.889661
vn 1.041671 -4.790746 -3.319575
v 0.050264 6.159893 2.848791
vn -0.398587 -4.790746 -3.456260
v -0.031029 6.159893 2.840246
vn -1.769927 -4.790748 -2.995330
v -0.108769 6.159893 2.865506
vn -2.835213 -4.790747 -2.016481
v -0.169514 6.159893 2.920201
vn -3.410276 -4.790744 -0.688961
v -0.202761 6.159893 2.994875
vn -3.395661 -4.790750 0.757679
v -0.202761 6.159893 3.076615
vn -2.793910 -4.790754 2.073311
v -0.169514 6.159893 3.151289
vn -1.709059 -4.790755 3.030455
v -0.108769 6.159893 3.205984
vn -0.328720 -4.790752 3.463604
v -0.031029 6.159893 3.231243
vn 1.108467 -4.790752 3.297859
v 0.050264 6.159893 3.222699
vn 2.354004 -4.790754 2.561880
v 0.121053 6.159893 3.181829
vn 3.192501 -4.790752 1.382944
v 0.169099 6.159893 3.115699
vn 3.478984 -4.790753 -0.035128
v 0.186094 6.159893 3.035745
vn 3.989048 -3.945083 -1.807420
v 0.216565 6.206676 2.934657
vn 2.909036 -3.945080 -3.273654
v 0.155820 6.206676 2.851049
vn 1.326035 -3.945068 -4.173851
v 0.066320 6.206676 2.799376
vn -0.486266 -3.945067 -4.352347
v -0.036460 6.206676 2.788573
vn -2.214504 -3.945063 -3.778280
v -0.134748 6.206676 2.820509
vn -3.559815 -3.945057 -2.550916
v -0.211549 6.206676 2.889661
vn -4.289606 -3.945056 -0.882475
v -0.253583 6.206676 2.984072
vn -4.277691 -3.945051 0.938551
v -0.253583 6.206676 3.087418
vn -3.526119 -3.945051 2.597301
v -0.211549 6.206676 3.181829
vn -2.164843 -3.945065 3.806947
v -0.134748 6.206676 3.250981
vn -0.429258 -3.945078 4.358335
v -0.036460 6.206676 3.282916
vn 1.380539 -3.945077 4.156131
v 0.066320 6.206676 3.272114
vn 2.951644 -3.945080 3.235289
v 0.155820 6.206676 3.220441
vn 4.012376 -3.945078 1.755041
v 0.216565 6.206676 3.136832
vn 4.379327 -3.945077 -0.028658
v 0.238052 6.206676 3.035745
vn 4.634334 -2.935680 -2.086488
v 0.254108 6.263239 2.917942
vn 3.385023 -2.935692 -3.791054
v 0.183318 6.263239 2.820509
vn 1.550412 -2.935690 -4.840112
v 0.079019 6.263239 2.760292
vn -0.552275 -2.935673 -5.052281
v -0.040756 6.263239 2.747703
vn -2.559480 -2.935684 -4.390849
v -0.155295 6.263239 2.784919
vn -4.124125 -2.935690 -2.970204
v -0.244795 6.263239 2.865506
vn -4.975667 -2.935683 -1.035990
v -0.293780 6.263239 2.975528
vn -4.966875 -2.935685 1.077353
v -0.293780 6.263239 3.095962
vn -4.099267 -2.935685 3.004421
v -0.244795 6.263239 3.205984
vn -2.522860 -2.935678 4.412001
v -0.155295 6.263239 3.286570
vn -0.510222 -2.935680 5.056696
v -0.040756 6.263239 3.323787
vn 1.590631 -2.935684 4.827046
v 0.079019 6.263239 3.311198
vn 3.416455 -2.935680 3.762756
v 0.183318 6.263239 3.250981
vn 4.651535 -2.935691 2.047847
v 0.254108 6.263239 3.153547
vn 5.082324 -2.935691 -0.021145
v 0.279147 6.263239 3.035745
vn 5.077144 -1.808507 -2.274661
v 0.280086 6.327110 2.906376
vn 3.713027 -1.808491 -4.143064
v 0.202346 6.327110 2.799376
vn 1.706874 -1.808508 -5.295091
v 0.087807 6.327110 2.733246
vn -0.594402 -1.808511 -5.531562
v -0.043728 6.327110 2.719422
vn -2.792892 -1.808515 -4.811570
v -0.169514 6.327110 2.760292
vn -4.508477 -1.808536 -3.259598
v -0.267802 6.327110 2.848791
vn -5.444496 -1.808543 -1.144030
v -0.321596 6.327110 2.969615
vn -5.439120 -1.808533 1.169343
v -0.321596 6.327110 3.101874
vn -4.493269 -1.808528 3.280533
v -0.267802 6.327110 3.222699
vn -2.770484 -1.808534 4.824497
v -0.169514 6.327110 3.311198
vn -0.568662 -1.808517 5.534262
v -0.043728 6.327110 3.352068
vn 1.731488 -1.808495 5.287104
v 0.087807 6.327110 3.338243
vn 3.732248 -1.808503 4.125748
v 0.202346 6.327110 3.272114
vn 5.087670 -1.808509 2.251020
v 0.280086 6.327110 3.165114
vn 5.563384 -1.808515 -0.012942
v 0.307585 6.327110 3.035745
vn 5.303594 -0.610674 -2.366087
v 0.293366 6.395498 2.900464
vn 3.882712 -0.610667 -4.318686
v 0.212073 6.395498 2.788574
vn 1.790472 -0.610658 -5.524553
v 0.092299 6.395498 2.719422
vn -0.611367 -0.610670 -5.775181
v -0.045247 6.395498 2.704965
vn -2.907479 -0.610682 -5.027226
v -0.176782 6.395498 2.747703
vn -4.700878 -0.610684 -3.410007
v -0.279562 6.395498 2.840246
vn -5.681446 -0.610686 -1.203172
v -0.335815 6.395498 2.966593
vn -5.679632 -0.610688 1.211695
v -0.335815 6.395498 3.104897
vn -4.695770 -0.610679 3.417046
v -0.279562 6.395498 3.231243
vn -2.899957 -0.610676 5.031569
v -0.176782 6.395498 3.323787
vn -0.602705 -0.610685 5.776086
v -0.045248 6.395498 3.366525
vn 1.798741 -0.610674 5.521867
v 0.092298 6.395498 3.352068
vn 3.889172 -0.610666 4.312866
v 0.212073 6.395498 3.282916
vn 5.307136 -0.610676 2.358129
v 0.293366 6.395498 3.171026
vn 5.807444 -0.610675 -0.004352
v 0.322121 6.395498 3.035745
vn 5.307135 0.610674 -2.358131
v 0.293366 6.465414 2.900464
vn 3.889184 0.610660 -4.312860
v 0.212073 6.465414 2.788574
vn 1.798746 0.610661 -5.521864
v 0.092299 6.465414 2.719422
vn -0.602704 0.610676 -5.776090
v -0.045247 6.465414 2.704965
vn -2.899940 0.610684 -5.031579
v -0.176782 6.465414 2.747703
vn -4.695759 0.610684 -3.417052
v -0.279562 6.465414 2.840246
vn -5.679635 0.610688 -1.211688
v -0.335815 6.465414 2.966593
vn -5.681444 0.610686 1.203176
v -0.335815 6.465414 3.104897
vn -4.700886 0.610675 3.410007
v -0.279562 6.465414 3.231243
vn -2.907495 0.610682 5.027214
v -0.176782 6.465414 3.323787
vn -0.611366 0.610683 5.775177
v -0.045248 6.465414 3.366525
vn 1.790463 0.610667 5.524558
v 0.092298 6.465414 3.352068
vn 3.882702 0.610671 4.318690
v 0.212073 6.465414 3.282916
vn 5.303594 0.610676 2.366086
v 0.293366 6.465414 3.171026
vn 5.807444 0.610675 0.004350
v 0.322121 6.465414 3.035745
vn 5.087669 1.808501 -2.251026
v 0.280086 6.533802 2.906376
vn 3.732255 1.808506 -4.125743
v 0.202346 6.533802 2.799376
vn 1.731488 1.808501 -5.287094
v 0.087807 6.533802 2.733246
vn -0.568667 1.808500 -5.534270
v -0.043728 6.533802 2.719422
vn -2.770481 1.808522 -4.824503
v -0.169514 6.533802 2.760292
vn -4.493261 1.808540 -3.280537
v -0.267802 6.533802 2.848791
vn -5.439118 1.808536 -1.169343
v -0.321596 6.533802 2.969615
vn -5.444499 1.808537 1.144030
v -0.321596 6.533802 3.101874
vn -4.508477 1.808535 3.259598
v -0.267802 6.533802 3.222699
vn -2.792902 1.808522 4.811559
v -0.169514 6.533802 3.311198
vn -0.594396 1.808514 5.531560
v -0.043728 6.533802 3.352068
vn 1.706877 1.808504 5.295099
v 0.087807 6.533802 3.338243
vn 3.713017 1.808496 4.143065
v 0.202346 6.533802 3.272114
vn 5.077143 1.808513 2.274658
v 0.280086 6.533802 3.165114
vn 5.563384 1.808515 0.012942
v 0.307585 6.533802 3.035745
vn 4.651531 2.935687 -2.047854
v 0.254108 6.597673 2.917942
vn 3.416453 2.935680 -3.762761
v 0.183318 6.597673 2.820509
vn 1.590638 2.935690 -4.827042
v 0.079019 6.597673 2.760292
vn -0.510223 2.935681 -5.056697
v -0.040756 6.597673 2.747703
vn -2.522858 2.935671 -4.412000
v -0.155295 6.597673 2.784919
vn -4.099270 2.935685 -3.004417
v -0.244795 6.597673 2.865506
vn -4.966871 2.935691 -1.077354
v -0.293780 6.597673 2.975528
vn -4.975669 2.935681 1.035990
v -0.293780 6.597673 3.095962
vn -4.124125 2.935681 2.970210
v -0.244795 6.597673 3.205984
vn -2.559478 2.935692 4.390850
v -0.155295 6.597673 3.286570
vn -0.552284 2.935688 5.052271
v -0.040756 6.597673 3.323787
vn 1.550414 2.935678 4.840117
v 0.079019 6.597673 3.311198
vn 3.385025 2.935684 3.791051
v 0.183318 6.597673 3.250981
vn 4.634336 2.935685 2.086482
v 0.254108 6.597673 3.153547
vn 5.082324 2.935692 0.021149
v 0.279147 6.597673 3.035745
vn 4.012368 3.945083 -1.755043
v 0.216565 6.654236 2.934657
vn 2.951639 3.945080 -3.235297
v 0.155820 6.654236 2.851049
vn 1.380558 3.945069 -4.156136
v 0.066320 6.654236 2.799376
vn -0.429258 3.945066 -4.358339
v -0.036460 6.654236 2.788573
vn -2.164851 3.945068 -3.806942
v -0.134748 6.654236 2.820509
vn -3.526119 3.945058 -2.597294
v -0.211549 6.654236 2.889661
vn -4.277691 3.945051 -0.938551
v -0.253583 6.654236 2.984072
vn -4.289606 3.945056 0.882475
v -0.253583 6.654236 3.087418
vn -3.559815 3.945054 2.550919
v -0.211549 6.654236 3.181829
vn -2.214489 3.945058 3.778290
v -0.134748 6.654236 3.250981
vn -0.486277 3.945076 4.352343
v -0.036460 6.654236 3.282916
vn 1.326019 3.945081 4.173843
v 0.066320 6.654236 3.272114
vn 2.909044 3.945077 3.273649
v 0.155820 6.654236 3.220441
vn 3.989057 3.945079 1.807415
v 0.216565 6.654236 3.136832
vn 4.379326 3.945078 0.028663
v 0.238052 6.654236 3.035745
vn 3.192515 4.790744 -1.382950
v 0.169099 6.701019 2.955791
vn 2.354012 4.790743 -2.561899
v 0.121053 6.701019 2.889661
vn 1.108492 4.790740 -3.297876
v 0.050264 6.701019 2.848791
vn -0.328719 4.790737 -3.463619
v -0.031029 6.701019 2.840246
vn -1.709093 4.790737 -3.030472
v -0.108769 6.701019 2.865506
vn -2.793931 4.790740 -2.073324
v -0.169514 6.701019 2.920201
vn -3.395679 4.790739 -0.757682
v -0.202761 6.701019 2.994875
vn -3.410286 4.790738 0.688963
v -0.202761 6.701019 3.076615
vn -2.835216 4.790745 2.016483
v -0.169514 6.701019 3.151289
vn -1.769914 4.790745 2.995340
v -0.108769 6.701019 3.205984
vn -0.398587 4.790740 3.456279
v -0.031029 6.701019 3.231243
vn 1.041656 4.790744 3.319582
v 0.050264 6.701019 3.222699
vn 2.301803 4.790745 2.608904
v 0.121053 6.701019 3.181829
vn 3.163941 4.790743 1.447126
v 0.169099 6.701019 3.115699
vn 3.479000 4.790744 0.035128
v 0.186094 6.701019 3.035745
vn 2.224067 5.430552 -0.946280
v 0.113785 6.735977 2.980418
vn 1.646906 5.430550 -1.769077
v 0.080538 6.735977 2.934657
vn 0.784976 5.430551 -2.285987
v 0.031553 6.735977 2.906376
vn -0.212684 5.430553 -2.407623
v -0.024700 6.735977 2.900463
vn -1.173577 5.430552 -2.112964
v -0.078494 6.735977 2.917942
vn -1.931529 5.430552 -1.452958
v -0.120529 6.735977 2.955790
vn -2.355508 5.430554 -0.541717
v -0.143535 6.735977 3.007463
vn -2.372197 5.430558 0.463185
v -0.143535 6.735977 3.064026
vn -1.978719 5.430556 1.388002
v -0.120529 6.735977 3.115699
vn -1.243097 5.430555 2.072826
v -0.078494 6.735977 3.153547
vn -0.292532 5.430552 2.399237
v -0.024700 6.735977 3.171026
vn 0.708613 5.430552 2.310797
v 0.031553 6.735977 3.165114
vn 1.587237 5.430553 1.822795
v 0.080538 6.735977 3.136832
vn 2.191411 5.430552 1.019626
v 0.113785 6.735977 3.091072
vn 2.416673 5.430552 0.040141
v 0.125545 6.735977 3.035745
vn 0.872117 2.850968 -0.316550
v 0.053040 6.757582 3.007463
vn 0.667966 2.850969 -0.643901
v 0.036045 6.757582 2.984072
vn 0.348322 2.850969 -0.859917
v 0.011006 6.757582 2.969615
vn -0.031554 2.850970 -0.927245
v -0.017749 6.757582 2.966593
vn -0.405972 2.850971 -0.834242
v -0.045248 6.757582 2.975528
vn -0.710191 2.850971 -0.596995
v -0.066734 6.757582 2.994875
vn -0.891611 2.850971 -0.256523
v -0.078494 6.757582 3.021288
vn -0.918867 2.850970 0.128305
v -0.078494 6.757582 3.050202
vn -0.787243 2.850969 0.490949
v -0.066734 6.757582 3.076615
vn -0.519499 2.850968 0.768709
v -0.045248 6.757582 3.095962
vn -0.161922 2.850968 0.913549
v -0.017749 6.757582 3.104897
vn 0.223654 2.850969 0.900426
v 0.011006 6.757582 3.101874
vn 0.570552 2.850968 0.731614
v 0.036045 6.757582 3.087418
vn 0.818798 2.850968 0.436300
v 0.053040 6.757582 3.064026
vn 0.925471 2.850967 0.065544
v 0.059052 6.757582 3.035745
vn 0.000000 -0.029497 -0.000000
v -0.010481 6.096022 3.035745
vn 0.000000 0.029497 -0.000000
v -0.010481 6.764890 3.035745
# 212 vertices, 0 vertices normals

f 1//1 2//2 17//17
f 1//1 17//17 16//16
f 2//2 3//3 18//18
f 2//2 18//18 17//17
f 3//3 4//4 19//19
f 3//3 19//19 18//18
f 4//4 5//5 20//20
f 4//4 20//20 19//19
f 5//5 6//6 21//21
f 5//5 21//21 20//20
f 6//6 7//7 22//22
f 6//6 22//22 21//21
f 7//7 8//8 23//23
f 7//7 23//23 22//22
f 8//8 9//9 24//24
f 8//8 24//24 23//23
f 9//9 10//10 25//25
f 9//9 25//25 24//24
f 10//10 11//11 26//26
f 10//10 26//26 25//25
f 11//11 12//12 27//27
f 11//11 27//27 26//26
f 12//12 13//13 28//28
f 12//12 28//28 27//27
f 13//13 14//14 29//29
f 13//13 29//29 28//28
f 14//14 15//15 30//30
f 14//14 30//30 29//29
f 15//15 1//1 16//16
f 15//15 16//16 30//30
f 16//16 17//17 32//32
f 16//16 32//32 31//31
f 17//17 18//18 33//33
f 17//17 33//33 32//32
f 18//18 19//19 34//34
f 18//18 34//34 33//33
f 19//19 20//20 35//35
f 19//19 35//35 34//34
f 20//20 21//21 36//36
f 20//20 36//36 35//35
f 21//21 22//22 37//37
f 21//21 37//37 36//36
f 22//22 23//23 38//38
f 22//22 38//38 37//37
f 23//23 24//24 39//39
f 23//23 39//39 38//38
f 24//24 25//25 40//40
f 24//24 40//40 39//39
f 25//25 26//26 41//41
f 25//25 41//41 40//40
f 26//26 27//27 42//42
f 26//26 42//42 41//41
f 27//27 28//28 43//43
f 27//27 43//43 42//42
f 28//28 29//29 44//44
f 28//28 44//44 43//43
f 29//29 30//30 45//45
f 29//29 45//45 44//44
f 30//30 16//16 31//31
f 30//30 31//31 45//45
f 31//31 32//32 47//47
f 31//31 47//47 46//46
f 32//32 33//33 48//48
f 32//32 48//48 47//47
f 33//33 34//34 49//49
f 33//33 49//49 48//48
f 34//34 35//35 50//50
f 34//34 50//50 49//49
f 35//35 36//36 51//51
f 35//35 51//51 50//50
f 36//36 37//37 52//52
f 36//36 52//52 51//51
f 37//37 38//38 53//53
f 37//37 53//53 52//52
f 38//38 39//39 54//54
f 38//38 54//54 53//53
f 39//39 40//40 55//55
f 39//39 55//55 54//54
f 40//40 41//41 56//56
f 40//40 56//56 55//55
f 41//41 42//42 57//57
f 41//41 57//57 56//56
f 42//42 43//43 58//58
f 42//42 58//58 57//57
f 43//43 44//44 59//59
f 43//43 59//59 58//58
f 44//44 45//45 60//60
f 44//44 60//60 59//59
f 45//45 31//31 46//46
f 45//45 46//46 60//60
f 46//46 47//47 62//62
f 46//46 62//62 61//61
f 47//47 48//48 63//63
f 47//47 63//63 62//62
f 48//48 49//49 64//64
f 48//48 64//64 63//63
f 49//49 50//50 65//65
f 49//49 65//65 64//64
f 50//50 51//51 66//66
f 50//50 66//66 65//65
f 51//51 52//52 67//67
f 51//51 67//67 66//66
f 52//52 53//53 68//68
f 52//52 68//68 67//67
f 53//53 54//54 69//69
f 53//53 69//69 68//68
f 54//54 55//55 70//70
f 54//54 70//70 69//69
f 55//55 56//56 71//71
f 55//55 71//71 70//70
f 56//56 57//57 72//72
f 56//56 72//72 71//71
f 57//57 58//58 73//73
f 57//57 73//73 72//72
f 58//58 59//59 74//74
f 58//58 74//74 73//73
f 59//59 60//60 75//75
f 59//59 75//75 74//74
f 60//60 46//46 61//61
f 60//60 61//61 75//75
f 61//61 62//62 77//77
f 61//61 77//77 76//76
f 62//62 63//63 78//78
f 62//62 78//78 77//77
f 63//63 64//64 79//79
f 63//63 79//79 78//78
f 64//64 65//65 80//80
f 64//64 80//80 79//79
f 65//65 66//66 81//81
f 65//65 81//81 80//80
f 66//66 67//67 82//82
f 66//66 82//82 81//81
f 67//67 68//68 83//83
f 67//67 83//83 82//82
f 68//68 69//69 84//84
f 68//68 84//84 83//83
f 69//69 70//70 85//85
f 69//69 85//85 84//84
f 70//70 71//71 86//86
f 70//70 86//86 85//85
f 71//71 72//72 87//87
f 71//71 87//87 86//86
f 72//72 73//73 88//88
f 72//72 88//88 87//87
f 73//73 74//74 89//89
f 73//73 89//89 88//88
f 74//74 75//75 90//90
f 74//74 90//90 89//89
f 75//75 61//61 76//76
f 75//75 76//76 90//90
f 76//76 77//77 92//92
f 76//76 92//92 91//91
f 77//77 78//78 93//93
f 77//77 93//93 92//92
f 78//78 79//79 94//94
f 78//78 94//94 93//93
f 79//79 80//80 95//95
f 79//79 95//95 94//94
f 80//80 81//81 96//96
f 80//80 96//96 95//95
f 81//81 82//82 97//97
f 81//81 97//97 96//96
f 82//82 83//83 98//98
f 82//82 98//98 97//97
f 83//83 84//84 99//99
f 83//83 99//99 98//98
f 84//84 85//85 100//100
f 84//84 100//100 99//99
f 85//85 86//86 101//101
f 85//85 101//101 100//100
f 86//86 87//87 102//102
f 86//86 102//102 101//101
f 87//87 88//88 103//103
f 87//87 103//103 102//102
f 88//88 89//89 104//104
f 88//88 104//104 103//103
f 89//89 90//90 105//105
f 89//89 105//105 104//104
f 90//90 76//76 91//91
f 90//90 91//91 105//105
f 91//91 92//92 107//107
f 91//91 107//107 106//106
f 92//92 93//93 108//108
f 92//92 108//108 107//107
f 93//93 94//94 109//109
f 93//93 109//109 108//108
f 94//94 95//95 110//110
f 94//94 110//110 109//109
f 95//95 96//96 111//111
f 95//95 111//111 110//110
f 96//96 97//97 112//112
f 96//96 112//112 111//111
f 97//97 98//98 113//113
f 97//97 113//113 112//112
f 98//98 99//99 114//114
f 98//98 114//114 113//113
f 99//99 100//100 115//115
f 99//99 115//115 114//114
f 100//100 101//101 116//116
f 100//100 116//116 115//115
f 101//101 102//102 117//117
f 101//101 117//117 116//116
f 102//102 103//103 118//118
f 102//102 118//118 117//117
f 103//103 104//104 119//119
f 103//103 119//119 118//118
f 104//104 105//105 120//120
f 104//104 120//120 119//119
f 105//105 91//91 106//106
f 105//105 106//106 120//120
f 106//106 107//107 122//122
f 106//106 122//122 121//121
f 107//107 108//108 123//123
f 107//107 123//123 122//122
f 108//108 109//109 124//124
f 108//108 124//124 123//123
f 109//109 110//110 125//125
f 109//109 125//125 124//124
f 110//110 111//111 126//126
f 110//110 126//126 125//125
f 111//111 112//112 127//127
f 111//111 127//127 126//126
f 112//112 113//113 128//128
f 112//112 128//128 127//127
f 113//113 114//114 129//129
f 113//113 129//129 128//128
f 114//114 115//115 130//130
f 114//114 130//130 129//129
f 115//115 116//116 131//131
f 115//115 131//131 130//130
f 116//116 117//117 132//132
f 116//116 132//132 131//131
f 117//117 118//118 133//133
f 117//117 133//133 132//132
f 118//118 119//119 134//134
f 118//118 134//134 133//133
f 119//119 120//120 135//135
f 119//119 135//135 134//134
f 120//120 106//106 121//121
f 120//120 121//121 135//135
f 121//121 122//122 137//137
f 121//121 137//137 136//136
f 122//122 123//123 138//138
f 122//122 138//138 137//137
f 123//123 124//124 139//139
f 123//123 139//139 138//138
f 124//124 125//125 140//140
f 124//124 140//140 139//139
f 125//125 126//126 141//141
f 125//125 141//141 140//140
f 126//126 127//127 142//142
f 126//126 142//142 141//141
f 127//127 128//128 143//143
f 127//127 143//143 142//142
f 128//128 129//129 144//144
f 128//128 144//144 143//143
f 129//129 130//130 145//145
f 129//129 145//145 144//144
f 130//130 131//131 146//146
f 130//130 146//146 145//145
f 131//131 132//132 147//147
f 131//131 147//147 146//146
f 132//132 133//133 148//148
f 132//132 148//148 147//147
f 133//133 134//134 149//149
f 133//133 149//149 148//148
f 134//134 135//135 150//150
f 134//134 150//150 149//149
f 135//135 121//121 136//136
f 135//135 136//136 150//150
f 136//136 137//137 152//152
f 136//136 152//152 151//151
f 137//137 138//138 153//153
f 137//137 153//153 152//152
f 138//138 139//139 154//154
f 138//138 154//154 153//153
f 139//139 140//140 155//155
f 139//139 155//155 154//154
f 140//140 141//141 156//156
f 140//140 156//156 155//155
f 141//141 142//142 157//157
f 141//141 157//157 156//156
f 142//142 143//143 158//158
f 142//142 158//158 157//157
f 143//143 144//144 159//159
f 143//143 159//159 158//158
f 144//144 145//145 160//160
f 144//144 160//160 159//159
f 145//145 146//146 161//161
f 145//145 161//161 160//160
f 146//146 147//147 162//162
f 146//146 162//162 161//161
f 147//147 148//148 163//163
f 147//147 163//163 162//162
f 148//148 149//149 164//164
f 148//148 164//164 163//163
f 149//149 150//150 165//165
f 149//149 165//165 164//164
f 150//150 136//136 151//151
f 150//150 151//151 165//165
f 151//151 152//152 167//167
f 151//151 167//167 166//166
f 152//152 153//153 168//168
f 152//152 168//168 167//167
f 153//153 154//154 169//169
f 153//153 169//169 168//168
f 154//154 155//155 170//170
f 154//154 170//170 169//169
f 155//155 156//156 171//171
f 155//155 171//171 170//170
f 156//156 157//157 172//172
f 156//156 172//172 171//171
f 157//157 158//158 173//173
f 157//157 173//173 172//172
f 158//158 159//159 174//174
f 158//158 174//174 173//173
f 159//159 160//160 175//175
f 159//159 175//175 174//174
f 160//160 161//161 176//176
f 160//160 176//176 175//175
f 161//161 162//162 177//177
f 161//161 177//177 176//176
f 162//162 163//163 178//178
f 162//162 178//178 177//177
f 163//163 164//164 179//179
f 163//163 179//179 178//178
f 164//164 165//165 180//180
f 164//164 180//180 179//179
f 165//165 151//151 166//166
f 165//165 166//166 180//180
f 166//166 167//167 182//182
f 166//166 182//182 181//181
f 167//167 168//168 183//183
f 167//167 183//183 182//182
f 168//168 169//169 184//184
f 168//168 184//184 183//183
f 169//169 170//170 185//185
f 169//169 185//185 184//184
f 170//170 171//171 186//186
f 170//170 186//186 185//185
f 171//171 172//172 187//187
f 171//171 187//187 186//186
f 172//172 173//173 188//188
f 172//172 188//188 187//187
f 173//173 174//174 189//189
f 173//173 189//189 188//188
f 174//174 175//175 190//190
f 174//174 190//190 189//189
f 175//175 176//176 191//191
f 175//175 191//191 190//190
f 176//176 177//177 192//192
f 176//176 192//192 191//191
f 177//177 178//178 193//193
f 177//177 193//193 192//192
f 178//178 179//179 194//194
f 178//178 194//194 193//193
f 179//179 180//180 195//195
f 179//179 195//195 194//194
f 180//180 166//166 181//181
f 180//180 181//181 195//195
f 181//181 182//182 197//197
f 181//181 197//197 196//196
f 182//182 183//183 198//198
f 182//182 198//198 197//197
f 183//183 184//184 199//199
f 183//183 199//199 198//198
f 184//184 185//185 200//200
f 184//184 200//200 199//199
f 185//185 186//186 201//201
f 185//185 201//201 200//200
f 186//186 187//187 202//202
f 186//186 202//202 201//201
f 187//187 188//188 203//203
f 187//187 203//203 202//202
f 188//188 189//189 204//204
f 188//188 204//204 203//203
f 189//189 190//190 205//205
f 189//189 205//205 204//204
f 190//190 191//191 206//206
f 190//190 206//206 205//205
f 191//191 192//192 207//207
f 191//191 207//207 206//206
f 192//192 193//193 208//208
f 192//192 208//208 207//207
f 193//193 194//194 209//209
f 193//193 209//209 208//208
f 194//194 195//195 210//210
f 194//194 210//210 209//209
f 195//195 181//181 196//196
f 195//195 196//196 210//210
f 2//2 1//1 211//211
f 3//3 2//2 211//211
f 4//4 3//3 211//211
f 5//5 4//4 211//211
f 6//6 5//5 211//211
f 7//7 6//6 211//211
f 8//8 7//7 211//211
f 9//9 8//8 211//211
f 10//10 9//9 211//211
f 11//11 10//10 211//211
f 12//12 11//11 211//211
f 13//13 12//12 211//211
f 14//14 13//13 211//211
f 15//15 14//14 211//211
f 1//1 15//15 211//211
f 196//196 197//197 212//212
f 197//197 198//198 212//212
f 198//198 199//199 212//212
f 199//199 200//200 212//212
f 200//200 201//201 212//212
f 201//201 202//202 212//212
f 202//202 203//203 212//212
f 203//203 204//204 212//212
f 204//204 205//205 212//212
f 205//205 206//206 212//212
f 206//206 207//207 212//212
f 207//207 208//208 212//212
f 208//208 209//209 212//212
f 209//209 210//210 212//212
f 210//210 196//196 212//212
# 420 faces, 0 coords texture

# End of File
