####
#
# OBJ File Generated by Meshlab
#
####
# Object sphere1.obj
#
# Vertices: 212
# Faces: 420
#
####
vn 0.821145 -2.875331 -0.437343
v 7.274274 5.552983 2.959883
vn 0.572269 -2.875331 -0.733522
v 7.228688 5.552983 2.897139
vn 0.224444 -2.875332 -0.902868
v 7.161522 5.552983 2.858361
vn -0.162189 -2.875331 -0.916102
v 7.084390 5.552983 2.850254
vn -0.520778 -2.875331 -0.770934
v 7.010630 5.552983 2.874220
vn -0.789323 -2.875331 -0.492460
v 6.952994 5.552983 2.926115
vn -0.921385 -2.875331 -0.128838
v 6.921449 5.552983 2.996967
vn -0.894132 -2.875331 0.257060
v 6.921449 5.552983 3.074523
vn -0.712275 -2.875331 0.598510
v 6.952994 5.552983 3.145374
vn -0.407257 -2.875331 0.836474
v 7.010630 5.552983 3.197270
vn -0.031824 -2.875331 0.929803
v 7.084390 5.552983 3.221236
vn 0.349114 -2.875331 0.862361
v 7.161522 5.552983 3.213129
vn 0.669688 -2.875331 0.645808
v 7.228688 5.552983 3.174351
vn 0.874463 -2.875331 0.317592
v 7.274274 5.552983 3.111606
vn 0.928036 -2.875331 -0.065543
v 7.290399 5.552983 3.035745
vn 2.191406 -5.430559 -1.019616
v 7.437215 5.610936 2.887337
vn 1.587232 -5.430559 -1.822789
v 7.348035 5.610936 2.764591
vn 0.708613 -5.430560 -2.310786
v 7.216638 5.610936 2.688729
vn -0.292530 -5.430560 -2.399226
v 7.065747 5.610936 2.672870
vn -1.243093 -5.430559 -2.072822
v 6.921449 5.610936 2.719755
vn -1.978712 -5.430560 -1.388006
v 6.808697 5.610936 2.821277
vn -2.372196 -5.430562 -0.463188
v 6.746986 5.610936 2.959883
vn -2.355504 -5.430561 0.541715
v 6.746986 5.610936 3.111606
vn -1.931529 -5.430560 1.452950
v 6.808697 5.610936 3.250212
vn -1.173571 -5.430560 2.112960
v 6.921449 5.610936 3.351735
vn -0.212691 -5.430560 2.407619
v 7.065746 5.610936 3.398620
vn 0.784967 -5.430559 2.285978
v 7.216638 5.610936 3.382761
vn 1.646895 -5.430559 1.769069
v 7.348034 5.610936 3.306899
vn 2.224057 -5.430561 0.946277
v 7.437215 5.610936 3.184152
vn 2.416659 -5.430561 -0.040140
v 7.468760 5.610936 3.035745
vn 3.163931 -4.790746 -1.447128
v 7.585588 5.704706 2.821278
vn 2.301798 -4.790745 -2.608900
v 7.456711 5.704706 2.643893
vn 1.041661 -4.790748 -3.319574
v 7.266827 5.704706 2.534264
vn -0.398585 -4.790749 -3.456260
v 7.048770 5.704706 2.511345
vn -1.769916 -4.790751 -2.995327
v 6.840242 5.704706 2.579100
vn -2.835209 -4.790749 -2.016483
v 6.677301 5.704706 2.725813
vn -3.410266 -4.790750 -0.688965
v 6.588120 5.704706 2.926115
vn -3.395658 -4.790751 0.757686
v 6.588120 5.704706 3.145374
vn -2.793915 -4.790749 2.073318
v 6.677301 5.704706 3.345677
vn -1.709079 -4.790748 3.030456
v 6.840242 5.704706 3.492390
vn -0.328719 -4.790748 3.463604
v 7.048770 5.704706 3.560145
vn 1.108479 -4.790749 3.297860
v 7.266827 5.704706 3.537226
vn 2.354008 -4.790748 2.561888
v 7.456711 5.704706 3.427596
vn 3.192504 -4.790747 1.382947
v 7.585588 5.704706 3.250212
vn 3.478989 -4.790747 -0.035129
v 7.631175 5.704706 3.035745
vn 3.989062 -3.945072 -1.807423
v 7.712908 5.830195 2.764591
vn 2.909045 -3.945073 -3.273656
v 7.549967 5.830195 2.540322
vn 1.326031 -3.945069 -4.173852
v 7.309895 5.830195 2.401716
vn -0.486264 -3.945070 -4.352348
v 7.034202 5.830195 2.372739
vn -2.214489 -3.945071 -3.778280
v 6.770557 5.830195 2.458402
vn -3.559803 -3.945071 -2.550917
v 6.564549 5.830195 2.643893
vn -4.289595 -3.945066 -0.882481
v 6.451796 5.830195 2.897139
vn -4.277674 -3.945070 0.938555
v 6.451796 5.830195 3.174351
vn -3.526105 -3.945070 2.597301
v 6.564549 5.830195 3.427596
vn -2.164850 -3.945067 3.806945
v 6.770557 5.830195 3.613087
vn -0.429261 -3.945068 4.358339
v 7.034201 5.830195 3.698751
vn 1.380551 -3.945072 4.156134
v 7.309895 5.830195 3.669774
vn 2.951644 -3.945079 3.235295
v 7.549967 5.830195 3.531168
vn 4.012375 -3.945075 1.755051
v 7.712908 5.830195 3.306899
vn 4.379334 -3.945069 -0.028664
v 7.770544 5.830195 3.035745
vn 4.634334 -2.935690 -2.086484
v 7.813611 5.981918 2.719755
vn 3.385021 -2.935689 -3.791051
v 7.623728 5.981918 2.458402
vn 1.550416 -2.935688 -4.840113
v 7.343959 5.981918 2.296878
vn -0.552273 -2.935683 -5.052276
v 7.022679 5.981918 2.263110
vn -2.559475 -2.935680 -4.390853
v 6.715441 5.981918 2.362937
vn -4.124121 -2.935678 -2.970211
v 6.475368 5.981918 2.579100
vn -4.975665 -2.935678 -1.035993
v 6.343972 5.981918 2.874220
vn -4.966873 -2.935677 1.077359
v 6.343972 5.981918 3.197270
vn -4.099257 -2.935686 3.004426
v 6.475368 5.981918 3.492390
vn -2.522853 -2.935689 4.411994
v 6.715441 5.981918 3.708552
vn -0.510220 -2.935688 5.056693
v 7.022679 5.981918 3.808380
vn 1.590635 -2.935684 4.827047
v 7.343959 5.981918 3.774612
vn 3.416450 -2.935688 3.762754
v 7.623728 5.981918 3.613088
vn 4.651531 -2.935694 2.047848
v 7.813612 5.981918 3.351735
vn 5.082322 -2.935693 -0.021149
v 7.880777 5.981918 3.035745
vn 5.077142 -1.808519 -2.274655
v 7.883296 6.153244 2.688729
vn 3.713016 -1.808518 -4.143059
v 7.674769 6.153244 2.401716
vn 1.706876 -1.808516 -5.295095
v 7.367530 6.153244 2.224332
vn -0.594398 -1.808516 -5.531557
v 7.014706 6.153244 2.187248
vn -2.792901 -1.808512 -4.811566
v 6.677301 6.153244 2.296878
vn -4.508482 -1.808513 -3.259610
v 6.413657 6.153244 2.534264
vn -5.444505 -1.808514 -1.144037
v 6.269360 6.153244 2.858361
vn -5.439124 -1.808514 1.169350
v 6.269360 6.153244 3.213129
vn -4.493270 -1.808513 3.280545
v 6.413657 6.153244 3.537226
vn -2.770489 -1.808515 4.824503
v 6.677301 6.153244 3.774612
vn -0.568664 -1.808519 5.534259
v 7.014706 6.153244 3.884242
vn 1.731487 -1.808519 5.287097
v 7.367530 6.153244 3.847158
vn 3.732246 -1.808510 4.125748
v 7.674769 6.153244 3.669774
vn 5.087669 -1.808512 2.251015
v 7.883296 6.153244 3.382761
vn 5.563385 -1.808519 -0.012942
v 7.957057 6.153244 3.035745
vn 5.303594 -0.610678 -2.366082
v 7.918917 6.336686 2.672870
vn 3.882706 -0.610678 -4.318686
v 7.700859 6.336686 2.372739
vn 1.790460 -0.610683 -5.524553
v 7.379580 6.336686 2.187248
vn -0.611373 -0.610679 -5.775176
v 7.010630 6.336686 2.148470
vn -2.907495 -0.610678 -5.027219
v 6.657805 6.336686 2.263110
vn -4.700880 -0.610681 -3.410010
v 6.382112 6.336686 2.511345
vn -5.681443 -0.610682 -1.203178
v 6.231220 6.336686 2.850254
vn -5.679633 -0.610683 1.211695
v 6.231220 6.336686 3.221236
vn -4.695763 -0.610680 3.417054
v 6.382112 6.336686 3.560145
vn -2.899955 -0.610676 5.031572
v 6.657805 6.336686 3.808380
vn -0.602717 -0.610675 5.776087
v 7.010630 6.336686 3.923020
vn 1.798740 -0.610679 5.521864
v 7.379579 6.336686 3.884242
vn 3.889173 -0.610679 4.312861
v 7.700859 6.336686 3.698751
vn 5.307137 -0.610676 2.358127
v 7.918917 6.336686 3.398620
vn 5.807445 -0.610679 -0.004353
v 7.996049 6.336686 3.035745
vn 5.307136 0.610678 -2.358128
v 7.918917 6.524226 2.672870
vn 3.889174 0.610683 -4.312860
v 7.700859 6.524226 2.372739
vn 1.798743 0.610683 -5.521862
v 7.379580 6.524226 2.187248
vn -0.602716 0.610680 -5.776086
v 7.010630 6.524226 2.148470
vn -2.899954 0.610681 -5.031571
v 6.657805 6.524226 2.263110
vn -4.695763 0.610683 -3.417053
v 6.382112 6.524226 2.511345
vn -5.679632 0.610685 -1.211695
v 6.231220 6.524226 2.850254
vn -5.681443 0.610684 1.203179
v 6.231220 6.524226 3.221236
vn -4.700881 0.610680 3.410011
v 6.382112 6.524226 3.560145
vn -2.907495 0.610677 5.027219
v 6.657805 6.524226 3.808380
vn -0.611374 0.610678 5.775177
v 7.010630 6.524226 3.923020
vn 1.790457 0.610681 5.524555
v 7.379579 6.524226 3.884242
vn 3.882704 0.610678 4.318687
v 7.700859 6.524226 3.698751
vn 5.303595 0.610679 2.366081
v 7.918917 6.524226 3.398620
vn 5.807445 0.610680 0.004353
v 7.996049 6.524226 3.035745
vn 5.087668 1.808519 -2.251014
v 7.883296 6.707668 2.688729
vn 3.732246 1.808514 -4.125747
v 7.674769 6.707668 2.401716
vn 1.731489 1.808522 -5.287097
v 7.367530 6.707668 2.224332
vn -0.568662 1.808516 -5.534262
v 7.014706 6.707668 2.187248
vn -2.770491 1.808512 -4.824504
v 6.677301 6.707668 2.296878
vn -4.493271 1.808513 -3.280545
v 6.413657 6.707668 2.534264
vn -5.439124 1.808516 -1.169349
v 6.269360 6.707668 2.858361
vn -5.444505 1.808516 1.144037
v 6.269360 6.707668 3.213129
vn -4.508478 1.808518 3.259610
v 6.413657 6.707668 3.537226
vn -2.792901 1.808519 4.811563
v 6.677301 6.707668 3.774612
vn -0.594400 1.808518 5.531554
v 7.014706 6.707668 3.884242
vn 1.706875 1.808516 5.295095
v 7.367530 6.707668 3.847158
vn 3.713015 1.808514 4.143062
v 7.674769 6.707668 3.669774
vn 5.077145 1.808514 2.274654
v 7.883296 6.707668 3.382761
vn 5.563383 1.808522 0.012938
v 7.957057 6.707668 3.035745
vn 4.651533 2.935695 -2.047849
v 7.813611 6.878994 2.719755
vn 3.416451 2.935690 -3.762752
v 7.623728 6.878994 2.458402
vn 1.590636 2.935683 -4.827048
v 7.343959 6.878994 2.296878
vn -0.510212 2.935685 -5.056695
v 7.022679 6.878994 2.263110
vn -2.522852 2.935680 -4.411998
v 6.715441 6.878994 2.362937
vn -4.099262 2.935679 -3.004425
v 6.475368 6.878994 2.579100
vn -4.966874 2.935676 -1.077359
v 6.343972 6.878994 2.874220
vn -4.975664 2.935680 1.035994
v 6.343972 6.878994 3.197270
vn -4.124116 2.935683 2.970211
v 6.475368 6.878994 3.492390
vn -2.559478 2.935687 4.390851
v 6.715441 6.878994 3.708552
vn -0.552279 2.935688 5.052272
v 7.022679 6.878994 3.808380
vn 1.550416 2.935689 4.840113
v 7.343959 6.878994 3.774612
vn 3.385019 2.935690 3.791053
v 7.623728 6.878994 3.613088
vn 4.634332 2.935690 2.086483
v 7.813612 6.878994 3.351735
vn 5.082324 2.935689 0.021141
v 7.880777 6.878994 3.035745
vn 4.012384 3.945065 -1.755055
v 7.712908 7.030717 2.764591
vn 2.951649 3.945070 -3.235300
v 7.549967 7.030717 2.540322
vn 1.380552 3.945068 -4.156139
v 7.309895 7.030717 2.401716
vn -0.429253 3.945066 -4.358344
v 7.034202 7.030717 2.372739
vn -2.164843 3.945068 -3.806947
v 6.770557 7.030717 2.458402
vn -3.526112 3.945066 -2.597301
v 6.564549 7.030717 2.643893
vn -4.277679 3.945065 -0.938555
v 6.451796 7.030717 2.897139
vn -4.289598 3.945063 0.882483
v 6.451796 7.030717 3.174351
vn -3.559806 3.945066 2.550924
v 6.564549 7.030717 3.427596
vn -2.214496 3.945065 3.778286
v 6.770557 7.030717 3.613087
vn -0.486274 3.945064 4.352351
v 7.034201 7.030717 3.698751
vn 1.326033 3.945066 4.173853
v 7.309895 7.030717 3.669774
vn 2.909046 3.945072 3.273658
v 7.549967 7.030717 3.531168
vn 3.989062 3.945072 1.807423
v 7.712908 7.030717 3.306899
vn 4.379337 3.945066 0.028659
v 7.770544 7.030717 3.035745
vn 3.192512 4.790741 -1.382948
v 7.585588 7.156206 2.821278
vn 2.354010 4.790741 -2.561893
v 7.456711 7.156206 2.643893
vn 1.108480 4.790742 -3.297868
v 7.266827 7.156206 2.534264
vn -0.328714 4.790745 -3.463608
v 7.048770 7.156206 2.511345
vn -1.709074 4.790746 -3.030460
v 6.840242 7.156206 2.579100
vn -2.793916 4.790747 -2.073321
v 6.677301 7.156206 2.725813
vn -3.395662 4.790747 -0.757688
v 6.588120 7.156206 2.926115
vn -3.410269 4.790747 0.688964
v 6.588120 7.156206 3.145374
vn -2.835214 4.790745 2.016484
v 6.677301 7.156206 3.345677
vn -1.769923 4.790743 2.995333
v 6.840242 7.156206 3.492390
vn -0.398592 4.790744 3.456264
v 7.048770 7.156206 3.560145
vn 1.041664 4.790744 3.319575
v 7.266827 7.156206 3.537226
vn 2.301799 4.790745 2.608900
v 7.456711 7.156206 3.427596
vn 3.163931 4.790744 1.447130
v 7.585588 7.156206 3.250212
vn 3.478994 4.790743 0.035129
v 7.631175 7.156206 3.035745
vn 2.224051 5.430562 -0.946273
v 7.437215 7.249976 2.887337
vn 1.646889 5.430561 -1.769065
v 7.348035 7.249976 2.764591
vn 0.784962 5.430562 -2.285971
v 7.216638 7.249976 2.688729
vn -0.212687 5.430562 -2.407612
v 7.065747 7.249976 2.672870
vn -1.173563 5.430562 -2.112957
v 6.921449 7.249976 2.719755
vn -1.931521 5.430562 -1.452950
v 6.808697 7.249976 2.821277
vn -2.355498 5.430563 -0.541715
v 6.746986 7.249976 2.959883
vn -2.372189 5.430564 0.463187
v 6.746986 7.249976 3.111606
vn -1.978710 5.430563 1.387998
v 6.808697 7.249976 3.250212
vn -1.243093 5.430562 2.072812
v 6.921449 7.249976 3.351735
vn -0.292532 5.430562 2.399221
v 7.065746 7.249976 3.398620
vn 0.708612 5.430562 2.310779
v 7.216638 7.249976 3.382761
vn 1.587232 5.430562 1.822783
v 7.348034 7.249976 3.306899
vn 2.191397 5.430562 1.019615
v 7.437215 7.249976 3.184152
vn 2.416652 5.430563 0.040142
v 7.468760 7.249976 3.035745
vn 0.874456 2.875334 -0.317589
v 7.274274 7.307929 2.959883
vn 0.669680 2.875334 -0.645804
v 7.228688 7.307929 2.897139
vn 0.349111 2.875334 -0.862354
v 7.161522 7.307929 2.858361
vn -0.031822 2.875334 -0.929796
v 7.084390 7.307929 2.850254
vn -0.407252 2.875333 -0.836470
v 7.010630 7.307929 2.874220
vn -0.712266 2.875334 -0.598508
v 6.952994 7.307929 2.926115
vn -0.894125 2.875333 -0.257057
v 6.921449 7.307929 2.996967
vn -0.921379 2.875333 0.128838
v 6.921449 7.307929 3.074523
vn -0.789319 2.875333 0.492457
v 6.952994 7.307929 3.145374
vn -0.520777 2.875334 0.770925
v 7.010630 7.307929 3.197270
vn -0.162189 2.875334 0.916095
v 7.084390 7.307929 3.221236
vn 0.224442 2.875334 0.902862
v 7.161522 7.307929 3.213129
vn 0.572268 2.875334 0.733516
v 7.228688 7.307929 3.174351
vn 0.821141 2.875333 0.437339
v 7.274274 7.307929 3.111606
vn 0.928030 2.875333 0.065544
v 7.290399 7.307929 3.035745
vn 0.000000 -0.212237 -0.000000
v 7.103886 5.533380 3.035745
vn 0.000000 0.212237 -0.000000
v 7.103886 7.327533 3.035745
# 212 vertices, 0 vertices normals

f 1//1 2//2 17//17
f 1//1 17//17 16//16
f 2//2 3//3 18//18
f 2//2 18//18 17//17
f 3//3 4//4 19//19
f 3//3 19//19 18//18
f 4//4 5//5 20//20
f 4//4 20//20 19//19
f 5//5 6//6 21//21
f 5//5 21//21 20//20
f 6//6 7//7 22//22
f 6//6 22//22 21//21
f 7//7 8//8 23//23
f 7//7 23//23 22//22
f 8//8 9//9 24//24
f 8//8 24//24 23//23
f 9//9 10//10 25//25
f 9//9 25//25 24//24
f 10//10 11//11 26//26
f 10//10 26//26 25//25
f 11//11 12//12 27//27
f 11//11 27//27 26//26
f 12//12 13//13 28//28
f 12//12 28//28 27//27
f 13//13 14//14 29//29
f 13//13 29//29 28//28
f 14//14 15//15 30//30
f 14//14 30//30 29//29
f 15//15 1//1 16//16
f 15//15 16//16 30//30
f 16//16 17//17 32//32
f 16//16 32//32 31//31
f 17//17 18//18 33//33
f 17//17 33//33 32//32
f 18//18 19//19 34//34
f 18//18 34//34 33//33
f 19//19 20//20 35//35
f 19//19 35//35 34//34
f 20//20 21//21 36//36
f 20//20 36//36 35//35
f 21//21 22//22 37//37
f 21//21 37//37 36//36
f 22//22 23//23 38//38
f 22//22 38//38 37//37
f 23//23 24//24 39//39
f 23//23 39//39 38//38
f 24//24 25//25 40//40
f 24//24 40//40 39//39
f 25//25 26//26 41//41
f 25//25 41//41 40//40
f 26//26 27//27 42//42
f 26//26 42//42 41//41
f 27//27 28//28 43//43
f 27//27 43//43 42//42
f 28//28 29//29 44//44
f 28//28 44//44 43//43
f 29//29 30//30 45//45
f 29//29 45//45 44//44
f 30//30 16//16 31//31
f 30//30 31//31 45//45
f 31//31 32//32 47//47
f 31//31 47//47 46//46
f 32//32 33//33 48//48
f 32//32 48//48 47//47
f 33//33 34//34 49//49
f 33//33 49//49 48//48
f 34//34 35//35 50//50
f 34//34 50//50 49//49
f 35//35 36//36 51//51
f 35//35 51//51 50//50
f 36//36 37//37 52//52
f 36//36 52//52 51//51
f 37//37 38//38 53//53
f 37//37 53//53 52//52
f 38//38 39//39 54//54
f 38//38 54//54 53//53
f 39//39 40//40 55//55
f 39//39 55//55 54//54
f 40//40 41//41 56//56
f 40//40 56//56 55//55
f 41//41 42//42 57//57
f 41//41 57//57 56//56
f 42//42 43//43 58//58
f 42//42 58//58 57//57
f 43//43 44//44 59//59
f 43//43 59//59 58//58
f 44//44 45//45 60//60
f 44//44 60//60 59//59
f 45//45 31//31 46//46
f 45//45 46//46 60//60
f 46//46 47//47 62//62
f 46//46 62//62 61//61
f 47//47 48//48 63//63
f 47//47 63//63 62//62
f 48//48 49//49 64//64
f 48//48 64//64 63//63
f 49//49 50//50 65//65
f 49//49 65//65 64//64
f 50//50 51//51 66//66
f 50//50 66//66 65//65
f 51//51 52//52 67//67
f 51//51 67//67 66//66
f 52//52 53//53 68//68
f 52//52 68//68 67//67
f 53//53 54//54 69//69
f 53//53 69//69 68//68
f 54//54 55//55 70//70
f 54//54 70//70 69//69
f 55//55 56//56 71//71
f 55//55 71//71 70//70
f 56//56 57//57 72//72
f 56//56 72//72 71//71
f 57//57 58//58 73//73
f 57//57 73//73 72//72
f 58//58 59//59 74//74
f 58//58 74//74 73//73
f 59//59 60//60 75//75
f 59//59 75//75 74//74
f 60//60 46//46 61//61
f 60//60 61//61 75//75
f 61//61 62//62 77//77
f 61//61 77//77 76//76
f 62//62 63//63 78//78
f 62//62 78//78 77//77
f 63//63 64//64 79//79
f 63//63 79//79 78//78
f 64//64 65//65 80//80
f 64//64 80//80 79//79
f 65//65 66//66 81//81
f 65//65 81//81 80//80
f 66//66 67//67 82//82
f 66//66 82//82 81//81
f 67//67 68//68 83//83
f 67//67 83//83 82//82
f 68//68 69//69 84//84
f 68//68 84//84 83//83
f 69//69 70//70 85//85
f 69//69 85//85 84//84
f 70//70 71//71 86//86
f 70//70 86//86 85//85
f 71//71 72//72 87//87
f 71//71 87//87 86//86
f 72//72 73//73 88//88
f 72//72 88//88 87//87
f 73//73 74//74 89//89
f 73//73 89//89 88//88
f 74//74 75//75 90//90
f 74//74 90//90 89//89
f 75//75 61//61 76//76
f 75//75 76//76 90//90
f 76//76 77//77 92//92
f 76//76 92//92 91//91
f 77//77 78//78 93//93
f 77//77 93//93 92//92
f 78//78 79//79 94//94
f 78//78 94//94 93//93
f 79//79 80//80 95//95
f 79//79 95//95 94//94
f 80//80 81//81 96//96
f 80//80 96//96 95//95
f 81//81 82//82 97//97
f 81//81 97//97 96//96
f 82//82 83//83 98//98
f 82//82 98//98 97//97
f 83//83 84//84 99//99
f 83//83 99//99 98//98
f 84//84 85//85 100//100
f 84//84 100//100 99//99
f 85//85 86//86 101//101
f 85//85 101//101 100//100
f 86//86 87//87 102//102
f 86//86 102//102 101//101
f 87//87 88//88 103//103
f 87//87 103//103 102//102
f 88//88 89//89 104//104
f 88//88 104//104 103//103
f 89//89 90//90 105//105
f 89//89 105//105 104//104
f 90//90 76//76 91//91
f 90//90 91//91 105//105
f 91//91 92//92 107//107
f 91//91 107//107 106//106
f 92//92 93//93 108//108
f 92//92 108//108 107//107
f 93//93 94//94 109//109
f 93//93 109//109 108//108
f 94//94 95//95 110//110
f 94//94 110//110 109//109
f 95//95 96//96 111//111
f 95//95 111//111 110//110
f 96//96 97//97 112//112
f 96//96 112//112 111//111
f 97//97 98//98 113//113
f 97//97 113//113 112//112
f 98//98 99//99 114//114
f 98//98 114//114 113//113
f 99//99 100//100 115//115
f 99//99 115//115 114//114
f 100//100 101//101 116//116
f 100//100 116//116 115//115
f 101//101 102//102 117//117
f 101//101 117//117 116//116
f 102//102 103//103 118//118
f 102//102 118//118 117//117
f 103//103 104//104 119//119
f 103//103 119//119 118//118
f 104//104 105//105 120//120
f 104//104 120//120 119//119
f 105//105 91//91 106//106
f 105//105 106//106 120//120
f 106//106 107//107 122//122
f 106//106 122//122 121//121
f 107//107 108//108 123//123
f 107//107 123//123 122//122
f 108//108 109//109 124//124
f 108//108 124//124 123//123
f 109//109 110//110 125//125
f 109//109 125//125 124//124
f 110//110 111//111 126//126
f 110//110 126//126 125//125
f 111//111 112//112 127//127
f 111//111 127//127 126//126
f 112//112 113//113 128//128
f 112//112 128//128 127//127
f 113//113 114//114 129//129
f 113//113 129//129 128//128
f 114//114 115//115 130//130
f 114//114 130//130 129//129
f 115//115 116//116 131//131
f 115//115 131//131 130//130
f 116//116 117//117 132//132
f 116//116 132//132 131//131
f 117//117 118//118 133//133
f 117//117 133//133 132//132
f 118//118 119//119 134//134
f 118//118 134//134 133//133
f 119//119 120//120 135//135
f 119//119 135//135 134//134
f 120//120 106//106 121//121
f 120//120 121//121 135//135
f 121//121 122//122 137//137
f 121//121 137//137 136//136
f 122//122 123//123 138//138
f 122//122 138//138 137//137
f 123//123 124//124 139//139
f 123//123 139//139 138//138
f 124//124 125//125 140//140
f 124//124 140//140 139//139
f 125//125 126//126 141//141
f 125//125 141//141 140//140
f 126//126 127//127 142//142
f 126//126 142//142 141//141
f 127//127 128//128 143//143
f 127//127 143//143 142//142
f 128//128 129//129 144//144
f 128//128 144//144 143//143
f 129//129 130//130 145//145
f 129//129 145//145 144//144
f 130//130 131//131 146//146
f 130//130 146//146 145//145
f 131//131 132//132 147//147
f 131//131 147//147 146//146
f 132//132 133//133 148//148
f 132//132 148//148 147//147
f 133//133 134//134 149//149
f 133//133 149//149 148//148
f 134//134 135//135 150//150
f 134//134 150//150 149//149
f 135//135 121//121 136//136
f 135//135 136//136 150//150
f 136//136 137//137 152//152
f 136//136 152//152 151//151
f 137//137 138//138 153//153
f 137//137 153//153 152//152
f 138//138 139//139 154//154
f 138//138 154//154 153//153
f 139//139 140//140 155//155
f 139//139 155//155 154//154
f 140//140 141//141 156//156
f 140//140 156//156 155//155
f 141//141 142//142 157//157
f 141//141 157//157 156//156
f 142//142 143//143 158//158
f 142//142 158//158 157//157
f 143//143 144//144 159//159
f 143//143 159//159 158//158
f 144//144 145//145 160//160
f 144//144 160//160 159//159
f 145//145 146//146 161//161
f 145//145 161//161 160//160
f 146//146 147//147 162//162
f 146//146 162//162 161//161
f 147//147 148//148 163//163
f 147//147 163//163 162//162
f 148//148 149//149 164//164
f 148//148 164//164 163//163
f 149//149 150//150 165//165
f 149//149 165//165 164//164
f 150//150 136//136 151//151
f 150//150 151//151 165//165
f 151//151 152//152 167//167
f 151//151 167//167 166//166
f 152//152 153//153 168//168
f 152//152 168//168 167//167
f 153//153 154//154 169//169
f 153//153 169//169 168//168
f 154//154 155//155 170//170
f 154//154 170//170 169//169
f 155//155 156//156 171//171
f 155//155 171//171 170//170
f 156//156 157//157 172//172
f 156//156 172//172 171//171
f 157//157 158//158 173//173
f 157//157 173//173 172//172
f 158//158 159//159 174//174
f 158//158 174//174 173//173
f 159//159 160//160 175//175
f 159//159 175//175 174//174
f 160//160 161//161 176//176
f 160//160 176//176 175//175
f 161//161 162//162 177//177
f 161//161 177//177 176//176
f 162//162 163//163 178//178
f 162//162 178//178 177//177
f 163//163 164//164 179//179
f 163//163 179//179 178//178
f 164//164 165//165 180//180
f 164//164 180//180 179//179
f 165//165 151//151 166//166
f 165//165 166//166 180//180
f 166//166 167//167 182//182
f 166//166 182//182 181//181
f 167//167 168//168 183//183
f 167//167 183//183 182//182
f 168//168 169//169 184//184
f 168//168 184//184 183//183
f 169//169 170//170 185//185
f 169//169 185//185 184//184
f 170//170 171//171 186//186
f 170//170 186//186 185//185
f 171//171 172//172 187//187
f 171//171 187//187 186//186
f 172//172 173//173 188//188
f 172//172 188//188 187//187
f 173//173 174//174 189//189
f 173//173 189//189 188//188
f 174//174 175//175 190//190
f 174//174 190//190 189//189
f 175//175 176//176 191//191
f 175//175 191//191 190//190
f 176//176 177//177 192//192
f 176//176 192//192 191//191
f 177//177 178//178 193//193
f 177//177 193//193 192//192
f 178//178 179//179 194//194
f 178//178 194//194 193//193
f 179//179 180//180 195//195
f 179//179 195//195 194//194
f 180//180 166//166 181//181
f 180//180 181//181 195//195
f 181//181 182//182 197//197
f 181//181 197//197 196//196
f 182//182 183//183 198//198
f 182//182 198//198 197//197
f 183//183 184//184 199//199
f 183//183 199//199 198//198
f 184//184 185//185 200//200
f 184//184 200//200 199//199
f 185//185 186//186 201//201
f 185//185 201//201 200//200
f 186//186 187//187 202//202
f 186//186 202//202 201//201
f 187//187 188//188 203//203
f 187//187 203//203 202//202
f 188//188 189//189 204//204
f 188//188 204//204 203//203
f 189//189 190//190 205//205
f 189//189 205//205 204//204
f 190//190 191//191 206//206
f 190//190 206//206 205//205
f 191//191 192//192 207//207
f 191//191 207//207 206//206
f 192//192 193//193 208//208
f 192//192 208//208 207//207
f 193//193 194//194 209//209
f 193//193 209//209 208//208
f 194//194 195//195 210//210
f 194//194 210//210 209//209
f 195//195 181//181 196//196
f 195//195 196//196 210//210
f 2//2 1//1 211//211
f 3//3 2//2 211//211
f 4//4 3//3 211//211
f 5//5 4//4 211//211
f 6//6 5//5 211//211
f 7//7 6//6 211//211
f 8//8 7//7 211//211
f 9//9 8//8 211//211
f 10//10 9//9 211//211
f 11//11 10//10 211//211
f 12//12 11//11 211//211
f 13//13 12//12 211//211
f 14//14 13//13 211//211
f 15//15 14//14 211//211
f 1//1 15//15 211//211
f 196//196 197//197 212//212
f 197//197 198//198 212//212
f 198//198 199//199 212//212
f 199//199 200//200 212//212
f 200//200 201//201 212//212
f 201//201 202//202 212//212
f 202//202 203//203 212//212
f 203//203 204//204 212//212
f 204//204 205//205 212//212
f 205//205 206//206 212//212
f 206//206 207//207 212//212
f 207//207 208//208 212//212
f 208//208 209//209 212//212
f 209//209 210//210 212//212
f 210//210 196//196 212//212
# 420 faces, 0 coords texture

# End of File
